{
	"patcher" : 	{
		"fileversion" : 1,
		"appversion" : 		{
			"major" : 8,
			"minor" : 6,
			"revision" : 4,
			"architecture" : "x64",
			"modernui" : 1
		}
,
		"classnamespace" : "box",
		"rect" : [ 134.0, 134.0, 2492.0, 1281.0 ],
		"bglocked" : 0,
		"openinpresentation" : 1,
		"default_fontsize" : 12.0,
		"default_fontface" : 0,
		"default_fontname" : "Arial",
		"gridonopen" : 1,
		"gridsize" : [ 15.0, 15.0 ],
		"gridsnaponopen" : 1,
		"objectsnaponopen" : 1,
		"statusbarvisible" : 2,
		"toolbarvisible" : 1,
		"lefttoolbarpinned" : 0,
		"toptoolbarpinned" : 0,
		"righttoolbarpinned" : 0,
		"bottomtoolbarpinned" : 0,
		"toolbars_unpinned_last_save" : 0,
		"tallnewobj" : 0,
		"boxanimatetime" : 200,
		"enablehscroll" : 1,
		"enablevscroll" : 1,
		"devicewidth" : 0.0,
		"description" : "",
		"digest" : "",
		"tags" : "",
		"style" : "",
		"subpatcher_template" : "",
		"assistshowspatchername" : 0,
		"boxes" : [ 			{
				"box" : 				{
					"id" : "obj-14",
					"maxclass" : "newobj",
					"numinlets" : 6,
					"numoutlets" : 1,
					"outlettype" : [ "" ],
					"patching_rect" : [ 225.0, 250.0, 90.0, 22.0 ],
					"text" : "scale 0. 1. 1 64"
				}

			}
, 			{
				"box" : 				{
					"id" : "obj-13",
					"maxclass" : "newobj",
					"numinlets" : 6,
					"numoutlets" : 1,
					"outlettype" : [ "" ],
					"patching_rect" : [ 121.0, 208.0, 90.0, 22.0 ],
					"text" : "scale 0. 1. 4 64"
				}

			}
, 			{
				"box" : 				{
					"id" : "obj-3",
					"maxclass" : "newobj",
					"numinlets" : 6,
					"numoutlets" : 1,
					"outlettype" : [ "" ],
					"patching_rect" : [ 66.0, 246.0, 103.0, 22.0 ],
					"text" : "scale 0. 1. 60 220"
				}

			}
, 			{
				"box" : 				{
					"comment" : "",
					"id" : "obj-26",
					"index" : 0,
					"maxclass" : "outlet",
					"numinlets" : 1,
					"numoutlets" : 0,
					"patching_rect" : [ 40.142857142857139, 508.0, 30.0, 30.0 ]
				}

			}
, 			{
				"box" : 				{
					"id" : "obj-22",
					"maxclass" : "newobj",
					"numinlets" : 8,
					"numoutlets" : 1,
					"outlettype" : [ "" ],
					"patching_rect" : [ 64.142857142857139, 419.5, 135.0, 22.0 ],
					"text" : "pak 0. 0. 0. 0. 0. 0. 0. 0."
				}

			}
, 			{
				"box" : 				{
					"id" : "obj-12",
					"maxclass" : "newobj",
					"numinlets" : 1,
					"numoutlets" : 9,
					"outlettype" : [ "", "", "", "", "", "", "", "", "FullPacket" ],
					"patching_rect" : [ 71.0, 140.0, 443.0, 22.0 ],
					"text" : "o.route /1 /2 /3 /4 /5 /6 /7 /8"
				}

			}
, 			{
				"box" : 				{
					"annotation" : "",
					"id" : "obj-10",
					"maxclass" : "live.dial",
					"numinlets" : 1,
					"numoutlets" : 2,
					"outlettype" : [ "", "float" ],
					"parameter_enable" : 1,
					"patching_rect" : [ 379.2744330848966, 328.947365283966064, 44.0, 54.0 ],
					"presentation" : 1,
					"presentation_rect" : [ 556.578942060470581, 3.289473652839661, 44.0, 54.0 ],
					"prototypename" : "pan",
					"saved_attribute_attributes" : 					{
						"valueof" : 						{
							"parameter_initial" : [ 0 ],
							"parameter_initial_enable" : 1,
							"parameter_linknames" : 1,
							"parameter_longname" : "live.dial[5]",
							"parameter_mmax" : 1.0,
							"parameter_modmode" : 0,
							"parameter_shortname" : "Pan",
							"parameter_type" : 0,
							"parameter_unitstyle" : 6
						}

					}
,
					"triangle" : 1,
					"varname" : "live.dial[5]"
				}

			}
, 			{
				"box" : 				{
					"annotation" : "",
					"id" : "obj-11",
					"maxclass" : "live.dial",
					"numinlets" : 1,
					"numoutlets" : 2,
					"outlettype" : [ "", "float" ],
					"parameter_enable" : 1,
					"patching_rect" : [ 327.300749370029962, 328.947365283966064, 44.0, 54.0 ],
					"presentation" : 1,
					"presentation_rect" : [ 466.447363972663879, 3.289473652839661, 44.0, 54.0 ],
					"prototypename" : "pan",
					"saved_attribute_attributes" : 					{
						"valueof" : 						{
							"parameter_initial" : [ 0 ],
							"parameter_initial_enable" : 1,
							"parameter_linknames" : 1,
							"parameter_longname" : "live.dial[6]",
							"parameter_mmax" : 1.0,
							"parameter_modmode" : 0,
							"parameter_shortname" : "Pan",
							"parameter_type" : 0,
							"parameter_unitstyle" : 6
						}

					}
,
					"triangle" : 1,
					"varname" : "live.dial[6]"
				}

			}
, 			{
				"box" : 				{
					"annotation" : "",
					"id" : "obj-7",
					"maxclass" : "live.dial",
					"numinlets" : 1,
					"numoutlets" : 2,
					"outlettype" : [ "", "float" ],
					"parameter_enable" : 1,
					"patching_rect" : [ 275.327065655163324, 328.947365283966064, 44.0, 54.0 ],
					"presentation" : 1,
					"presentation_rect" : [ 376.315785884857178, 3.289473652839661, 44.0, 54.0 ],
					"prototypename" : "pan",
					"saved_attribute_attributes" : 					{
						"valueof" : 						{
							"parameter_initial" : [ 0 ],
							"parameter_initial_enable" : 1,
							"parameter_linknames" : 1,
							"parameter_longname" : "live.dial[2]",
							"parameter_mmax" : 1.0,
							"parameter_modmode" : 0,
							"parameter_shortname" : "Pan",
							"parameter_type" : 0,
							"parameter_unitstyle" : 6
						}

					}
,
					"triangle" : 1,
					"varname" : "live.dial[2]"
				}

			}
, 			{
				"box" : 				{
					"annotation" : "",
					"id" : "obj-8",
					"maxclass" : "live.dial",
					"numinlets" : 1,
					"numoutlets" : 2,
					"outlettype" : [ "", "float" ],
					"parameter_enable" : 1,
					"patching_rect" : [ 171.379698225430076, 328.947365283966064, 44.0, 54.0 ],
					"presentation" : 1,
					"presentation_rect" : [ 195.394734978675842, 3.289473652839661, 44.0, 54.0 ],
					"prototypename" : "pan",
					"saved_attribute_attributes" : 					{
						"valueof" : 						{
							"parameter_initial" : [ 0 ],
							"parameter_initial_enable" : 1,
							"parameter_linknames" : 1,
							"parameter_longname" : "live.dial[3]",
							"parameter_mmax" : 1.0,
							"parameter_modmode" : 0,
							"parameter_shortname" : "Chance",
							"parameter_type" : 0,
							"parameter_unitstyle" : 1
						}

					}
,
					"triangle" : 1,
					"varname" : "live.dial[3]"
				}

			}
, 			{
				"box" : 				{
					"annotation" : "",
					"id" : "obj-9",
					"maxclass" : "live.dial",
					"numinlets" : 1,
					"numoutlets" : 2,
					"outlettype" : [ "", "float" ],
					"parameter_enable" : 1,
					"patching_rect" : [ 223.353381940296714, 328.947365283966064, 44.0, 54.0 ],
					"presentation" : 1,
					"presentation_rect" : [ 284.21052360534668, 3.289473652839661, 44.0, 54.0 ],
					"prototypename" : "pan",
					"saved_attribute_attributes" : 					{
						"valueof" : 						{
							"parameter_initial" : [ 0 ],
							"parameter_initial_enable" : 1,
							"parameter_linknames" : 1,
							"parameter_longname" : "live.dial[4]",
							"parameter_mmax" : 64.0,
							"parameter_mmin" : 1.0,
							"parameter_modmode" : 0,
							"parameter_shortname" : "Slices",
							"parameter_type" : 1,
							"parameter_unitstyle" : 0
						}

					}
,
					"triangle" : 1,
					"varname" : "live.dial[4]"
				}

			}
, 			{
				"box" : 				{
					"annotation" : "",
					"id" : "obj-6",
					"maxclass" : "live.dial",
					"numinlets" : 1,
					"numoutlets" : 2,
					"outlettype" : [ "", "float" ],
					"parameter_enable" : 1,
					"patching_rect" : [ 119.406014510563438, 328.947365283966064, 44.0, 54.0 ],
					"presentation" : 1,
					"presentation_rect" : [ 105.263156890869141, 3.289473652839661, 44.0, 54.0 ],
					"prototypename" : "pan",
					"saved_attribute_attributes" : 					{
						"valueof" : 						{
							"parameter_initial" : [ 0 ],
							"parameter_initial_enable" : 1,
							"parameter_linknames" : 1,
							"parameter_longname" : "live.dial[1]",
							"parameter_mmax" : 64.0,
							"parameter_mmin" : 4.0,
							"parameter_modmode" : 0,
							"parameter_shortname" : "numBeats",
							"parameter_type" : 1,
							"parameter_unitstyle" : 0
						}

					}
,
					"triangle" : 1,
					"varname" : "live.dial[1]"
				}

			}
, 			{
				"box" : 				{
					"annotation" : "",
					"id" : "obj-5",
					"maxclass" : "live.dial",
					"numinlets" : 1,
					"numoutlets" : 2,
					"outlettype" : [ "", "float" ],
					"parameter_enable" : 1,
					"patching_rect" : [ 64.142857142857139, 328.947365283966064, 44.0, 54.0 ],
					"presentation" : 1,
					"presentation_rect" : [ 12.49999988079071, 3.289473652839661, 44.0, 54.0 ],
					"prototypename" : "pan",
					"saved_attribute_attributes" : 					{
						"valueof" : 						{
							"parameter_initial" : [ 0 ],
							"parameter_initial_enable" : 1,
							"parameter_linknames" : 1,
							"parameter_longname" : "live.dial",
							"parameter_mmax" : 200.0,
							"parameter_mmin" : 60.0,
							"parameter_modmode" : 0,
							"parameter_shortname" : "BPM",
							"parameter_type" : 1,
							"parameter_unitstyle" : 0
						}

					}
,
					"triangle" : 1,
					"varname" : "live.dial"
				}

			}
, 			{
				"box" : 				{
					"id" : "obj-4",
					"maxclass" : "newobj",
					"numinlets" : 1,
					"numoutlets" : 2,
					"outlettype" : [ "", "FullPacket" ],
					"patching_rect" : [ 66.0, 84.0, 67.0, 22.0 ],
					"text" : "o.route /rot"
				}

			}
, 			{
				"box" : 				{
					"annotation" : "",
					"id" : "obj-1",
					"maxclass" : "live.dial",
					"numinlets" : 1,
					"numoutlets" : 2,
					"outlettype" : [ "", "float" ],
					"parameter_enable" : 1,
					"patching_rect" : [ 470.0, 335.526312589645386, 44.0, 54.0 ],
					"presentation" : 1,
					"presentation_rect" : [ 639.473678112030029, 3.289473652839661, 44.0, 54.0 ],
					"prototypename" : "pan",
					"saved_attribute_attributes" : 					{
						"valueof" : 						{
							"parameter_initial" : [ 0 ],
							"parameter_initial_enable" : 1,
							"parameter_linknames" : 1,
							"parameter_longname" : "live.dial[7]",
							"parameter_mmax" : 1.0,
							"parameter_modmode" : 0,
							"parameter_shortname" : "Pan",
							"parameter_type" : 0,
							"parameter_unitstyle" : 6
						}

					}
,
					"triangle" : 1,
					"varname" : "live.dial[7]"
				}

			}
, 			{
				"box" : 				{
					"id" : "obj-88",
					"maxclass" : "newobj",
					"numinlets" : 1,
					"numoutlets" : 2,
					"outlettype" : [ "", "FullPacket" ],
					"patching_rect" : [ 66.0, 53.0, 111.0, 22.0 ],
					"text" : "o.route /unitinterval"
				}

			}
, 			{
				"box" : 				{
					"id" : "obj-84",
					"maxclass" : "newobj",
					"numinlets" : 1,
					"numoutlets" : 1,
					"outlettype" : [ "" ],
					"patching_rect" : [ 66.0, 21.0, 121.0, 22.0 ],
					"text" : "o.jm.korgnanokontrol"
				}

			}
 ],
		"lines" : [ 			{
				"patchline" : 				{
					"destination" : [ "obj-22", 7 ],
					"source" : [ "obj-1", 0 ]
				}

			}
, 			{
				"patchline" : 				{
					"destination" : [ "obj-22", 6 ],
					"source" : [ "obj-10", 0 ]
				}

			}
, 			{
				"patchline" : 				{
					"destination" : [ "obj-22", 5 ],
					"source" : [ "obj-11", 0 ]
				}

			}
, 			{
				"patchline" : 				{
					"destination" : [ "obj-1", 0 ],
					"source" : [ "obj-12", 7 ]
				}

			}
, 			{
				"patchline" : 				{
					"destination" : [ "obj-10", 0 ],
					"midpoints" : [ 451.5, 318.0 ],
					"source" : [ "obj-12", 6 ]
				}

			}
, 			{
				"patchline" : 				{
					"destination" : [ "obj-11", 0 ],
					"source" : [ "obj-12", 5 ]
				}

			}
, 			{
				"patchline" : 				{
					"destination" : [ "obj-13", 0 ],
					"source" : [ "obj-12", 1 ]
				}

			}
, 			{
				"patchline" : 				{
					"destination" : [ "obj-14", 0 ],
					"source" : [ "obj-12", 3 ]
				}

			}
, 			{
				"patchline" : 				{
					"destination" : [ "obj-3", 0 ],
					"source" : [ "obj-12", 0 ]
				}

			}
, 			{
				"patchline" : 				{
					"destination" : [ "obj-7", 0 ],
					"source" : [ "obj-12", 4 ]
				}

			}
, 			{
				"patchline" : 				{
					"destination" : [ "obj-8", 0 ],
					"source" : [ "obj-12", 2 ]
				}

			}
, 			{
				"patchline" : 				{
					"destination" : [ "obj-6", 0 ],
					"source" : [ "obj-13", 0 ]
				}

			}
, 			{
				"patchline" : 				{
					"destination" : [ "obj-9", 0 ],
					"source" : [ "obj-14", 0 ]
				}

			}
, 			{
				"patchline" : 				{
					"destination" : [ "obj-26", 0 ],
					"source" : [ "obj-22", 0 ]
				}

			}
, 			{
				"patchline" : 				{
					"destination" : [ "obj-5", 0 ],
					"source" : [ "obj-3", 0 ]
				}

			}
, 			{
				"patchline" : 				{
					"destination" : [ "obj-12", 0 ],
					"source" : [ "obj-4", 0 ]
				}

			}
, 			{
				"patchline" : 				{
					"destination" : [ "obj-22", 0 ],
					"source" : [ "obj-5", 0 ]
				}

			}
, 			{
				"patchline" : 				{
					"destination" : [ "obj-22", 1 ],
					"source" : [ "obj-6", 0 ]
				}

			}
, 			{
				"patchline" : 				{
					"destination" : [ "obj-22", 4 ],
					"source" : [ "obj-7", 0 ]
				}

			}
, 			{
				"patchline" : 				{
					"destination" : [ "obj-22", 2 ],
					"source" : [ "obj-8", 0 ]
				}

			}
, 			{
				"patchline" : 				{
					"destination" : [ "obj-88", 0 ],
					"source" : [ "obj-84", 0 ]
				}

			}
, 			{
				"patchline" : 				{
					"destination" : [ "obj-4", 0 ],
					"source" : [ "obj-88", 0 ]
				}

			}
, 			{
				"patchline" : 				{
					"destination" : [ "obj-22", 3 ],
					"source" : [ "obj-9", 0 ]
				}

			}
 ],
		"parameters" : 		{
			"obj-1" : [ "live.dial[7]", "Pan", 0 ],
			"obj-10" : [ "live.dial[5]", "Pan", 0 ],
			"obj-11" : [ "live.dial[6]", "Pan", 0 ],
			"obj-5" : [ "live.dial", "BPM", 0 ],
			"obj-6" : [ "live.dial[1]", "numBeats", 0 ],
			"obj-7" : [ "live.dial[2]", "Pan", 0 ],
			"obj-8" : [ "live.dial[3]", "Chance", 0 ],
			"obj-9" : [ "live.dial[4]", "Slices", 0 ],
			"parameterbanks" : 			{
				"0" : 				{
					"index" : 0,
					"name" : "",
					"parameters" : [ "-", "-", "-", "-", "-", "-", "-", "-" ]
				}

			}
,
			"inherited_shortname" : 1
		}
,
		"dependency_cache" : [ 			{
				"name" : "o.append.mxe64",
				"type" : "mx64"
			}
, 			{
				"name" : "o.collect.mxe64",
				"type" : "mx64"
			}
, 			{
				"name" : "o.expr.codebox.mxe64",
				"type" : "mx64"
			}
, 			{
				"name" : "o.jm.korgnanokontrol.buttonhelper.maxpat",
				"bootpath" : "~/OneDrive/Documents/Max 8/Library/o.jm.korgnanokontrol-main/o.jm.korgnanokontrol-main/patchers",
				"patcherrelativepath" : "../o.jm.korgnanokontrol-main/o.jm.korgnanokontrol-main/patchers",
				"type" : "JSON",
				"implicit" : 1
			}
, 			{
				"name" : "o.jm.korgnanokontrol.encoderhelper.maxpat",
				"bootpath" : "~/OneDrive/Documents/Max 8/Library/o.jm.korgnanokontrol-main/o.jm.korgnanokontrol-main/patchers",
				"patcherrelativepath" : "../o.jm.korgnanokontrol-main/o.jm.korgnanokontrol-main/patchers",
				"type" : "JSON",
				"implicit" : 1
			}
, 			{
				"name" : "o.jm.korgnanokontrol.maxpat",
				"bootpath" : "~/OneDrive/Documents/Max 8/Library/o.jm.korgnanokontrol-main/o.jm.korgnanokontrol-main/patchers",
				"patcherrelativepath" : "../o.jm.korgnanokontrol-main/o.jm.korgnanokontrol-main/patchers",
				"type" : "JSON",
				"implicit" : 1
			}
, 			{
				"name" : "o.pack.mxe64",
				"type" : "mx64"
			}
, 			{
				"name" : "o.prepend.mxe64",
				"type" : "mx64"
			}
, 			{
				"name" : "o.righttoleft.maxpat",
				"bootpath" : "~/OneDrive/Documents/Max 8/Library/CNMAT-odot/patchers/ordering",
				"patcherrelativepath" : "../CNMAT-odot/patchers/ordering",
				"type" : "JSON",
				"implicit" : 1
			}
, 			{
				"name" : "o.route.mxe64",
				"type" : "mx64"
			}
, 			{
				"name" : "thru.maxpat",
				"bootpath" : "C74:/patchers/m4l/Pluggo for Live resources/patches",
				"type" : "JSON",
				"implicit" : 1
			}
 ],
		"autosave" : 0
	}

}
