{
	"patcher" : 	{
		"fileversion" : 1,
		"appversion" : 		{
			"major" : 9,
			"minor" : 0,
			"revision" : 5,
			"architecture" : "x64",
			"modernui" : 1
		}
,
		"classnamespace" : "box",
		"rect" : [ 275.0, 224.0, 1203.0, 630.0 ],
		"openinpresentation" : 1,
		"gridsize" : [ 15.0, 15.0 ],
		"boxes" : [ 			{
				"box" : 				{
					"id" : "obj-34",
					"maxclass" : "comment",
					"numinlets" : 1,
					"numoutlets" : 0,
					"patching_rect" : [ 1491.190462112426758, 456.666662454605103, 117.0, 20.0 ],
					"presentation" : 1,
					"presentation_rect" : [ 267.0, 37.0, 54.0, 20.0 ],
					"style" : "helpfile_label",
					"text" : "Sampler"
				}

			}
, 			{
				"box" : 				{
					"id" : "obj-5",
					"maxclass" : "comment",
					"numinlets" : 1,
					"numoutlets" : 0,
					"patching_rect" : [ 1476.190462112426758, 441.666662454605103, 117.0, 20.0 ],
					"presentation" : 1,
					"presentation_rect" : [ 329.914533257484436, 88.084466218948364, 107.142856121063232, 20.0 ],
					"style" : "helpfile_label",
					"text" : "elapsed time (ms)"
				}

			}
, 			{
				"box" : 				{
					"fontface" : 0,
					"fontname" : "Arial",
					"fontsize" : 13.0,
					"id" : "obj-25",
					"maxclass" : "number~",
					"mode" : 2,
					"numinlets" : 2,
					"numoutlets" : 2,
					"outlettype" : [ "signal", "float" ],
					"patching_rect" : [ 1416.666653156280518, 441.666662454605103, 59.0, 23.0 ],
					"presentation" : 1,
					"presentation_rect" : [ 334.188037574291229, 63.298141181468964, 59.0, 23.0 ],
					"sig" : 0.0
				}

			}
, 			{
				"box" : 				{
					"id" : "obj-27",
					"maxclass" : "toggle",
					"numinlets" : 1,
					"numoutlets" : 1,
					"outlettype" : [ "int" ],
					"parameter_enable" : 0,
					"patching_rect" : [ 1476.190462112426758, 347.119044303894043, 24.0, 24.0 ],
					"presentation" : 1,
					"presentation_rect" : [ 282.0, 63.0, 24.0, 24.0 ]
				}

			}
, 			{
				"box" : 				{
					"fontname" : "Arial",
					"fontsize" : 13.0,
					"id" : "obj-26",
					"maxclass" : "message",
					"numinlets" : 2,
					"numoutlets" : 1,
					"outlettype" : [ "" ],
					"patching_rect" : [ 1416.666653156280518, 347.619044303894043, 38.0, 23.0 ],
					"presentation" : 1,
					"presentation_rect" : [ 334.188037574291229, 35.947713553905487, 38.0, 23.0 ],
					"text" : "open"
				}

			}
, 			{
				"box" : 				{
					"fontname" : "Arial",
					"fontsize" : 13.0,
					"id" : "obj-33",
					"maxclass" : "newobj",
					"numinlets" : 2,
					"numoutlets" : 1,
					"outlettype" : [ "signal" ],
					"patching_rect" : [ 1416.666653156280518, 409.523805618286133, 176.0, 23.0 ],
					"text" : "sfrecord~ 2"
				}

			}
, 			{
				"box" : 				{
					"id" : "obj-23",
					"maxclass" : "live.text",
					"mode" : 0,
					"numinlets" : 1,
					"numoutlets" : 2,
					"outlettype" : [ "", "" ],
					"parameter_enable" : 1,
					"patching_rect" : [ 332.026154279708862, 598.692829370498657, 44.0, 15.0 ],
					"presentation" : 1,
					"presentation_rect" : [ 88.888891696929932, 350.980403244495392, 67.320263564586639, 32.026144802570343 ],
					"saved_attribute_attributes" : 					{
						"valueof" : 						{
							"parameter_enum" : [ "val1", "val2" ],
							"parameter_longname" : "live.text",
							"parameter_mmax" : 1,
							"parameter_modmode" : 0,
							"parameter_shortname" : "Replace",
							"parameter_type" : 2
						}

					}
,
					"text" : "Replace",
					"varname" : "live.text"
				}

			}
, 			{
				"box" : 				{
					"id" : "obj-21",
					"linecount" : 3,
					"maxclass" : "comment",
					"numinlets" : 1,
					"numoutlets" : 0,
					"patching_rect" : [ 645.098059594631195, 730.065382540225983, 150.0, 47.0 ],
					"presentation" : 1,
					"presentation_linecount" : 3,
					"presentation_rect" : [ 85.620917737483978, 544.205900430679321, 150.0, 47.0 ],
					"text" : "FRM Infopoiesis \nMuindi Fanuel Muindi\nChicago IL May 2025"
				}

			}
, 			{
				"box" : 				{
					"id" : "obj-11",
					"maxclass" : "newobj",
					"numinlets" : 1,
					"numoutlets" : 4,
					"outlettype" : [ "float", "float", "float", "float" ],
					"patching_rect" : [ 373.202626168727875, 84.352943778038025, 321.568637609481812, 22.0 ],
					"text" : "unpack 0. 0. 0. 0."
				}

			}
, 			{
				"box" : 				{
					"bgmode" : 0,
					"border" : 0,
					"clickthrough" : 0,
					"enablehscroll" : 0,
					"enablevscroll" : 0,
					"id" : "obj-3",
					"lockeddragscroll" : 0,
					"lockedsize" : 0,
					"maxclass" : "bpatcher",
					"name" : "frm.kntrl.maxpat",
					"numinlets" : 0,
					"numoutlets" : 1,
					"offset" : [ 0.0, 0.0 ],
					"outlettype" : [ "" ],
					"patching_rect" : [ 369.934652209281921, -31.372550010681152, 328.104585528373718, 62.091505229473114 ],
					"presentation" : 1,
					"presentation_rect" : [ 459.477138698101044, 39.869282305240631, 328.104585528373718, 62.091505229473114 ],
					"viewvisibility" : 1
				}

			}
, 			{
				"box" : 				{
					"id" : "obj-8",
					"maxclass" : "comment",
					"numinlets" : 1,
					"numoutlets" : 0,
					"patching_rect" : [ 659.0, 828.0, 36.0, 20.0 ],
					"text" : "Hz"
				}

			}
, 			{
				"box" : 				{
					"attr" : "chance",
					"displaymode" : 2,
					"id" : "obj-1",
					"maxclass" : "attrui",
					"numinlets" : 1,
					"numoutlets" : 1,
					"outlettype" : [ "" ],
					"parameter_enable" : 0,
					"patching_rect" : [ 574.915051241715787, 112.0, 125.0, 22.0 ],
					"text_width" : 76.0,
					"varname" : "attrui[1]"
				}

			}
, 			{
				"box" : 				{
					"activebgcolor" : [ 0.058823529411765, 0.058823529411765, 0.058823529411765, 1.0 ],
					"activelinecolor" : [ 1.0, 1.0, 1.0, 1.0 ],
					"id" : "obj-14",
					"maxclass" : "live.scope~",
					"numinlets" : 2,
					"numoutlets" : 1,
					"outlettype" : [ "bang" ],
					"patching_rect" : [ 591.0, 243.0, 342.0, 200.0 ],
					"presentation" : 1,
					"presentation_rect" : [ 466.666681408882141, 130.065363585948944, 342.0, 200.0 ],
					"rounded" : 0.0,
					"samples" : 180000.0
				}

			}
, 			{
				"box" : 				{
					"activebgcolor" : [ 0.058823529411765, 0.058823529411765, 0.058823529411765, 1.0 ],
					"activelinecolor" : [ 1.0, 1.0, 1.0, 1.0 ],
					"id" : "obj-4",
					"maxclass" : "live.scope~",
					"numinlets" : 2,
					"numoutlets" : 1,
					"outlettype" : [ "bang" ],
					"patching_rect" : [ 958.0, 149.0, 424.0, 502.0 ],
					"presentation" : 1,
					"presentation_rect" : [ 833.9869544506073, 35.947713553905487, 424.0, 502.0 ],
					"range" : [ -0.1, 1.1 ],
					"rounded" : 0.0,
					"samples" : 180000.0
				}

			}
, 			{
				"box" : 				{
					"attr" : "numbeats",
					"displaymode" : 1,
					"id" : "obj-19",
					"maxclass" : "attrui",
					"numinlets" : 1,
					"numoutlets" : 1,
					"outlettype" : [ "" ],
					"parameter_enable" : 0,
					"patching_rect" : [ 474.058838705221831, 145.09804379940033, 125.0, 22.0 ],
					"text_width" : 76.0,
					"varname" : "attrui[3]"
				}

			}
, 			{
				"box" : 				{
					"attr" : "bpm",
					"id" : "obj-6",
					"maxclass" : "attrui",
					"numinlets" : 1,
					"numoutlets" : 1,
					"outlettype" : [ "" ],
					"parameter_enable" : 0,
					"patching_rect" : [ 373.202626168727875, 117.647062540054321, 125.0, 22.0 ],
					"text_width" : 76.0,
					"varname" : "attrui[4]"
				}

			}
, 			{
				"box" : 				{
					"id" : "obj-9",
					"maxclass" : "newobj",
					"numinlets" : 1,
					"numoutlets" : 2,
					"outlettype" : [ "signal", "signal" ],
					"patcher" : 					{
						"fileversion" : 1,
						"appversion" : 						{
							"major" : 9,
							"minor" : 0,
							"revision" : 5,
							"architecture" : "x64",
							"modernui" : 1
						}
,
						"classnamespace" : "dsp.gen",
						"rect" : [ 753.0, 160.0, 674.0, 638.0 ],
						"gridsize" : [ 15.0, 15.0 ],
						"boxes" : [ 							{
								"box" : 								{
									"id" : "obj-15",
									"maxclass" : "newobj",
									"numinlets" : 1,
									"numoutlets" : 1,
									"outlettype" : [ "" ],
									"patching_rect" : [ 50.749996870756149, 385.0, 39.0, 22.0 ],
									"text" : "/ 2.22"
								}

							}
, 							{
								"box" : 								{
									"id" : "obj-14",
									"maxclass" : "newobj",
									"numinlets" : 1,
									"numoutlets" : 1,
									"outlettype" : [ "" ],
									"patching_rect" : [ 48.749996870756149, 355.0, 36.0, 22.0 ],
									"text" : "+ 1.1"
								}

							}
, 							{
								"box" : 								{
									"id" : "obj-7",
									"maxclass" : "newobj",
									"numinlets" : 1,
									"numoutlets" : 1,
									"outlettype" : [ "" ],
									"patching_rect" : [ 14.28846150636673, 478.94736385345459, 55.0, 22.0 ],
									"text" : "wrap 0 1"
								}

							}
, 							{
								"box" : 								{
									"id" : "obj-6",
									"maxclass" : "newobj",
									"numinlets" : 2,
									"numoutlets" : 2,
									"outlettype" : [ "", "" ],
									"patching_rect" : [ 48.749996870756149, 292.0, 123.0, 22.0 ],
									"text" : "peek step_sequencer"
								}

							}
, 							{
								"box" : 								{
									"id" : "obj-5",
									"maxclass" : "newobj",
									"numinlets" : 0,
									"numoutlets" : 1,
									"outlettype" : [ "" ],
									"patching_rect" : [ 61.0, 171.0, 117.0, 22.0 ],
									"text" : "dim step_sequencer"
								}

							}
, 							{
								"box" : 								{
									"id" : "obj-3",
									"maxclass" : "newobj",
									"numinlets" : 0,
									"numoutlets" : 2,
									"outlettype" : [ "", "" ],
									"patching_rect" : [ 415.269999999999982, 343.509999999999991, 128.0, 22.0 ],
									"text" : "buffer step_sequencer"
								}

							}
, 							{
								"box" : 								{
									"id" : "obj-85",
									"maxclass" : "newobj",
									"numinlets" : 1,
									"numoutlets" : 1,
									"outlettype" : [ "" ],
									"patching_rect" : [ 197.0, 223.0, 45.0, 22.0 ],
									"text" : "/ slices"
								}

							}
, 							{
								"box" : 								{
									"id" : "obj-84",
									"maxclass" : "newobj",
									"numinlets" : 0,
									"numoutlets" : 1,
									"outlettype" : [ "" ],
									"patching_rect" : [ 395.0, 171.0, 137.0, 22.0 ],
									"text" : "param slices 16 @min 1"
								}

							}
, 							{
								"box" : 								{
									"id" : "obj-83",
									"maxclass" : "newobj",
									"numinlets" : 2,
									"numoutlets" : 1,
									"outlettype" : [ "" ],
									"patching_rect" : [ 64.654864311218262, 661.842098951339722, 57.0, 22.0 ],
									"text" : "+"
								}

							}
, 							{
								"box" : 								{
									"id" : "obj-78",
									"maxclass" : "newobj",
									"numinlets" : 0,
									"numoutlets" : 1,
									"outlettype" : [ "" ],
									"patching_rect" : [ 238.0, 171.0, 149.0, 22.0 ],
									"text" : "param chance 0.2 @min 0"
								}

							}
, 							{
								"box" : 								{
									"id" : "obj-79",
									"maxclass" : "newobj",
									"numinlets" : 2,
									"numoutlets" : 1,
									"outlettype" : [ "" ],
									"patching_rect" : [ 197.0, 197.0, 60.5, 22.0 ],
									"text" : "*"
								}

							}
, 							{
								"box" : 								{
									"id" : "obj-80",
									"maxclass" : "newobj",
									"numinlets" : 0,
									"numoutlets" : 1,
									"outlettype" : [ "" ],
									"patching_rect" : [ 196.0, 171.0, 37.0, 22.0 ],
									"text" : "noise"
								}

							}
, 							{
								"box" : 								{
									"id" : "obj-71",
									"maxclass" : "newobj",
									"numinlets" : 1,
									"numoutlets" : 1,
									"outlettype" : [ "" ],
									"patching_rect" : [ 80.444337844848633, 609.210520505905151, 76.0, 22.0 ],
									"text" : "go.ramp2trig"
								}

							}
, 							{
								"box" : 								{
									"id" : "obj-70",
									"maxclass" : "newobj",
									"numinlets" : 2,
									"numoutlets" : 1,
									"outlettype" : [ "" ],
									"patching_rect" : [ 64.654864311218262, 636.842099189758301, 34.0, 22.0 ],
									"text" : "latch"
								}

							}
, 							{
								"box" : 								{
									"id" : "obj-68",
									"maxclass" : "newobj",
									"numinlets" : 1,
									"numoutlets" : 1,
									"outlettype" : [ "" ],
									"patching_rect" : [ 395.0, 197.0, 32.0, 22.0 ],
									"text" : "floor"
								}

							}
, 							{
								"box" : 								{
									"id" : "obj-65",
									"maxclass" : "newobj",
									"numinlets" : 2,
									"numoutlets" : 1,
									"outlettype" : [ "" ],
									"patching_rect" : [ 50.53846150636673, 239.0, 29.5, 22.0 ],
									"text" : "*"
								}

							}
, 							{
								"box" : 								{
									"id" : "obj-64",
									"maxclass" : "newobj",
									"numinlets" : 2,
									"numoutlets" : 5,
									"outlettype" : [ "", "", "", "", "" ],
									"patching_rect" : [ 48.865390777587891, 576.315783977508545, 88.0, 22.0 ],
									"text" : "go.ramp2steps"
								}

							}
, 							{
								"box" : 								{
									"id" : "obj-46",
									"maxclass" : "newobj",
									"numinlets" : 2,
									"numoutlets" : 5,
									"outlettype" : [ "", "", "", "", "" ],
									"patching_rect" : [ 147.54960036277771, 576.315783977508545, 88.0, 22.0 ],
									"text" : "go.ramp2steps"
								}

							}
, 							{
								"box" : 								{
									"id" : "obj-36",
									"maxclass" : "comment",
									"numinlets" : 1,
									"numoutlets" : 0,
									"patching_rect" : [ 238.0, 149.0, 130.0, 20.0 ],
									"text" : "sometimes skip about"
								}

							}
, 							{
								"box" : 								{
									"id" : "obj-30",
									"maxclass" : "newobj",
									"numinlets" : 1,
									"numoutlets" : 1,
									"outlettype" : [ "" ],
									"patching_rect" : [ 64.654864311218262, 699.999993324279785, 55.0, 22.0 ],
									"text" : "wrap 0 1"
								}

							}
, 							{
								"box" : 								{
									"id" : "obj-21",
									"maxclass" : "comment",
									"numinlets" : 1,
									"numoutlets" : 0,
									"patching_rect" : [ 73.78846150636673, 106.0, 82.0, 20.0 ],
									"text" : "loop phasor"
								}

							}
, 							{
								"box" : 								{
									"id" : "obj-2",
									"maxclass" : "newobj",
									"numinlets" : 1,
									"numoutlets" : 0,
									"patching_rect" : [ 171.233810663223267, 761.842097997665405, 75.0, 22.0 ],
									"text" : "out 2 phasor"
								}

							}
, 							{
								"box" : 								{
									"id" : "obj-1",
									"maxclass" : "newobj",
									"numinlets" : 2,
									"numoutlets" : 1,
									"outlettype" : [ "" ],
									"patching_rect" : [ 24.28846150636673, 106.0, 45.0, 22.0 ],
									"text" : "phasor"
								}

							}
, 							{
								"box" : 								{
									"id" : "obj-24",
									"maxclass" : "comment",
									"numinlets" : 1,
									"numoutlets" : 0,
									"patching_rect" : [ 131.78846150636673, 23.0, 105.0, 20.0 ],
									"text" : "# beats per loop"
								}

							}
, 							{
								"box" : 								{
									"id" : "obj-23",
									"maxclass" : "comment",
									"numinlets" : 1,
									"numoutlets" : 0,
									"patching_rect" : [ 56.865390777587891, 47.0, 72.0, 20.0 ],
									"text" : "BPM to Hz"
								}

							}
, 							{
								"box" : 								{
									"id" : "obj-20",
									"maxclass" : "newobj",
									"numinlets" : 2,
									"numoutlets" : 1,
									"outlettype" : [ "" ],
									"patching_rect" : [ 24.28846150636673, 71.0, 126.5, 22.0 ],
									"text" : "/"
								}

							}
, 							{
								"box" : 								{
									"id" : "obj-18",
									"maxclass" : "newobj",
									"numinlets" : 1,
									"numoutlets" : 1,
									"outlettype" : [ "" ],
									"patching_rect" : [ 24.28846150636673, 47.0, 29.0, 22.0 ],
									"text" : "/ 60"
								}

							}
, 							{
								"box" : 								{
									"id" : "obj-16",
									"maxclass" : "newobj",
									"numinlets" : 0,
									"numoutlets" : 1,
									"outlettype" : [ "" ],
									"patching_rect" : [ 131.78846150636673, 45.0, 109.0, 22.0 ],
									"text" : "param numbeats 8"
								}

							}
, 							{
								"box" : 								{
									"id" : "obj-13",
									"maxclass" : "newobj",
									"numinlets" : 0,
									"numoutlets" : 1,
									"outlettype" : [ "" ],
									"patching_rect" : [ 24.28846150636673, 23.0, 93.0, 22.0 ],
									"text" : "param bpm 140"
								}

							}
, 							{
								"box" : 								{
									"id" : "obj-12",
									"maxclass" : "newobj",
									"numinlets" : 2,
									"numoutlets" : 2,
									"outlettype" : [ "", "" ],
									"patching_rect" : [ 64.654864311218262, 735.52630877494812, 81.0, 22.0 ],
									"text" : "sample amen"
								}

							}
, 							{
								"box" : 								{
									"id" : "obj-11",
									"maxclass" : "newobj",
									"numinlets" : 0,
									"numoutlets" : 2,
									"outlettype" : [ "", "" ],
									"patching_rect" : [ 184.391705274581909, 735.52630877494812, 72.0, 22.0 ],
									"text" : "buffer amen"
								}

							}
, 							{
								"box" : 								{
									"id" : "obj-4",
									"maxclass" : "newobj",
									"numinlets" : 1,
									"numoutlets" : 0,
									"patching_rect" : [ 64.654864311218262, 761.842097997665405, 71.0, 22.0 ],
									"text" : "out 1 sound"
								}

							}
 ],
						"lines" : [ 							{
								"patchline" : 								{
									"destination" : [ "obj-46", 0 ],
									"midpoints" : [ 33.78846150636673, 465.0, 157.04960036277771, 465.0 ],
									"order" : 0,
									"source" : [ "obj-1", 0 ]
								}

							}
, 							{
								"patchline" : 								{
									"destination" : [ "obj-65", 0 ],
									"midpoints" : [ 33.78846150636673, 225.0, 60.03846150636673, 225.0 ],
									"order" : 1,
									"source" : [ "obj-1", 0 ]
								}

							}
, 							{
								"patchline" : 								{
									"destination" : [ "obj-4", 0 ],
									"midpoints" : [ 74.154864311218262, 759.0, 74.154864311218262, 759.0 ],
									"source" : [ "obj-12", 0 ]
								}

							}
, 							{
								"patchline" : 								{
									"destination" : [ "obj-18", 0 ],
									"midpoints" : [ 33.78846150636673, 48.0, 33.78846150636673, 48.0 ],
									"source" : [ "obj-13", 0 ]
								}

							}
, 							{
								"patchline" : 								{
									"destination" : [ "obj-15", 0 ],
									"midpoints" : [ 58.249996870756149, 381.0, 60.249996870756149, 381.0 ],
									"source" : [ "obj-14", 0 ]
								}

							}
, 							{
								"patchline" : 								{
									"destination" : [ "obj-7", 0 ],
									"source" : [ "obj-15", 0 ]
								}

							}
, 							{
								"patchline" : 								{
									"destination" : [ "obj-20", 1 ],
									"midpoints" : [ 141.28846150636673, 69.0, 141.28846150636673, 69.0 ],
									"source" : [ "obj-16", 0 ]
								}

							}
, 							{
								"patchline" : 								{
									"destination" : [ "obj-20", 0 ],
									"midpoints" : [ 33.78846150636673, 72.0, 33.78846150636673, 72.0 ],
									"source" : [ "obj-18", 0 ]
								}

							}
, 							{
								"patchline" : 								{
									"destination" : [ "obj-1", 0 ],
									"midpoints" : [ 33.78846150636673, 96.0, 33.78846150636673, 96.0 ],
									"source" : [ "obj-20", 0 ]
								}

							}
, 							{
								"patchline" : 								{
									"destination" : [ "obj-12", 0 ],
									"midpoints" : [ 74.154864311218262, 723.0, 74.154864311218262, 723.0 ],
									"order" : 1,
									"source" : [ "obj-30", 0 ]
								}

							}
, 							{
								"patchline" : 								{
									"destination" : [ "obj-2", 0 ],
									"midpoints" : [ 74.154864311218262, 723.0, 171.0, 723.0, 171.0, 756.0, 180.733810663223267, 756.0 ],
									"order" : 0,
									"source" : [ "obj-30", 0 ]
								}

							}
, 							{
								"patchline" : 								{
									"destination" : [ "obj-71", 0 ],
									"midpoints" : [ 191.54960036277771, 609.0, 156.0, 609.0, 156.0, 606.0, 89.944337844848633, 606.0 ],
									"source" : [ "obj-46", 2 ]
								}

							}
, 							{
								"patchline" : 								{
									"destination" : [ "obj-83", 1 ],
									"midpoints" : [ 208.79960036277771, 648.0, 112.154864311218262, 648.0 ],
									"source" : [ "obj-46", 3 ]
								}

							}
, 							{
								"patchline" : 								{
									"destination" : [ "obj-65", 1 ],
									"midpoints" : [ 70.5, 195.0, 70.53846150636673, 195.0 ],
									"source" : [ "obj-5", 0 ]
								}

							}
, 							{
								"patchline" : 								{
									"destination" : [ "obj-14", 0 ],
									"midpoints" : [ 58.249996870756149, 315.0, 58.249996870756149, 315.0 ],
									"source" : [ "obj-6", 0 ]
								}

							}
, 							{
								"patchline" : 								{
									"destination" : [ "obj-70", 0 ],
									"midpoints" : [ 75.615390777587891, 633.0, 74.154864311218262, 633.0 ],
									"source" : [ "obj-64", 1 ]
								}

							}
, 							{
								"patchline" : 								{
									"destination" : [ "obj-6", 0 ],
									"midpoints" : [ 60.03846150636673, 288.0, 58.249996870756149, 288.0 ],
									"source" : [ "obj-65", 0 ]
								}

							}
, 							{
								"patchline" : 								{
									"destination" : [ "obj-46", 1 ],
									"midpoints" : [ 404.5, 561.0, 226.04960036277771, 561.0 ],
									"order" : 0,
									"source" : [ "obj-68", 0 ]
								}

							}
, 							{
								"patchline" : 								{
									"destination" : [ "obj-64", 1 ],
									"midpoints" : [ 404.5, 561.0, 127.365390777587891, 561.0 ],
									"order" : 1,
									"source" : [ "obj-68", 0 ]
								}

							}
, 							{
								"patchline" : 								{
									"destination" : [ "obj-64", 0 ],
									"midpoints" : [ 23.78846150636673, 561.0, 58.365390777587891, 561.0 ],
									"source" : [ "obj-7", 0 ]
								}

							}
, 							{
								"patchline" : 								{
									"destination" : [ "obj-83", 0 ],
									"midpoints" : [ 74.154864311218262, 660.0, 74.154864311218262, 660.0 ],
									"source" : [ "obj-70", 0 ]
								}

							}
, 							{
								"patchline" : 								{
									"destination" : [ "obj-70", 1 ],
									"midpoints" : [ 89.944337844848633, 633.0, 89.154864311218262, 633.0 ],
									"source" : [ "obj-71", 0 ]
								}

							}
, 							{
								"patchline" : 								{
									"destination" : [ "obj-79", 1 ],
									"midpoints" : [ 247.5, 195.0, 248.0, 195.0 ],
									"source" : [ "obj-78", 0 ]
								}

							}
, 							{
								"patchline" : 								{
									"destination" : [ "obj-85", 0 ],
									"midpoints" : [ 206.5, 222.0, 206.5, 222.0 ],
									"source" : [ "obj-79", 0 ]
								}

							}
, 							{
								"patchline" : 								{
									"destination" : [ "obj-79", 0 ],
									"midpoints" : [ 205.5, 195.0, 206.5, 195.0 ],
									"source" : [ "obj-80", 0 ]
								}

							}
, 							{
								"patchline" : 								{
									"destination" : [ "obj-30", 0 ],
									"midpoints" : [ 74.154864311218262, 684.0, 74.154864311218262, 684.0 ],
									"source" : [ "obj-83", 0 ]
								}

							}
, 							{
								"patchline" : 								{
									"destination" : [ "obj-68", 0 ],
									"midpoints" : [ 404.5, 195.0, 404.5, 195.0 ],
									"source" : [ "obj-84", 0 ]
								}

							}
, 							{
								"patchline" : 								{
									"destination" : [ "obj-64", 0 ],
									"midpoints" : [ 206.5, 561.0, 58.365390777587891, 561.0 ],
									"source" : [ "obj-85", 0 ]
								}

							}
 ],
						"originid" : "pat-24"
					}
,
					"patching_rect" : [ 488.0, 185.0, 124.0, 22.0 ],
					"text" : "gen~ @title beatslicer"
				}

			}
, 			{
				"box" : 				{
					"attr" : "slices",
					"id" : "obj-20",
					"maxclass" : "attrui",
					"numinlets" : 1,
					"numoutlets" : 1,
					"outlettype" : [ "" ],
					"parameter_enable" : 0,
					"patching_rect" : [ 675.771263778209686, 149.0, 150.0, 22.0 ]
				}

			}
, 			{
				"box" : 				{
					"bufsize" : 256,
					"calccount" : 32,
					"id" : "obj-111",
					"maxclass" : "scope~",
					"numinlets" : 2,
					"numoutlets" : 0,
					"patching_rect" : [ 591.0, 464.0, 347.0, 187.0 ],
					"presentation" : 1,
					"presentation_rect" : [ 466.666681408882141, 350.980403244495392, 347.0, 187.0 ]
				}

			}
, 			{
				"box" : 				{
					"id" : "obj-113",
					"lastchannelcount" : 0,
					"maxclass" : "live.gain~",
					"numinlets" : 2,
					"numoutlets" : 5,
					"orientation" : 1,
					"outlettype" : [ "signal", "signal", "", "float", "list" ],
					"parameter_enable" : 1,
					"patching_rect" : [ 531.0, 235.0, 121.0, 36.0 ],
					"presentation" : 1,
					"presentation_rect" : [ 466.666681408882141, 564.705900192260742, 285.0, 36.0 ],
					"saved_attribute_attributes" : 					{
						"valueof" : 						{
							"parameter_initial" : [ -50 ],
							"parameter_initial_enable" : 1,
							"parameter_longname" : "live.gain~[1]",
							"parameter_mmax" : 6.0,
							"parameter_mmin" : -70.0,
							"parameter_modmode" : 0,
							"parameter_shortname" : "live.gain~",
							"parameter_type" : 0,
							"parameter_unitstyle" : 4
						}

					}
,
					"showname" : 0,
					"varname" : "live.gain~[2]"
				}

			}
, 			{
				"box" : 				{
					"id" : "obj-114",
					"local" : 1,
					"maxclass" : "ezdac~",
					"numinlets" : 2,
					"numoutlets" : 0,
					"patching_rect" : [ 528.0, 368.0, 44.0, 44.0 ],
					"presentation" : 1,
					"presentation_rect" : [ 769.934664845466614, 556.862762689590454, 44.0, 44.0 ],
					"prototypename" : "helpfile"
				}

			}
, 			{
				"box" : 				{
					"buffername" : "step_sequencer",
					"id" : "obj-54",
					"maxclass" : "waveform~",
					"numinlets" : 5,
					"numoutlets" : 6,
					"outlettype" : [ "float", "float", "float", "float", "list", "" ],
					"patching_rect" : [ 102.0, 492.0, 272.0, 64.0 ],
					"presentation" : 1,
					"presentation_rect" : [ 85.620917737483978, 134.640527129173279, 360.784325122833252, 190.660147577524185 ]
				}

			}
, 			{
				"box" : 				{
					"buffername" : "amen",
					"id" : "obj-18",
					"maxclass" : "waveform~",
					"numinlets" : 5,
					"numoutlets" : 6,
					"outlettype" : [ "float", "float", "float", "float", "list", "" ],
					"patching_rect" : [ 102.0, 634.0, 354.0, 166.0 ],
					"presentation" : 1,
					"presentation_rect" : [ 85.620917737483978, 350.980403244495392, 360.784325122833252, 190.196084439754486 ]
				}

			}
, 			{
				"box" : 				{
					"id" : "obj-17",
					"maxclass" : "message",
					"numinlets" : 2,
					"numoutlets" : 1,
					"outlettype" : [ "" ],
					"patching_rect" : [ 102.0, 574.0, 48.0, 22.0 ],
					"text" : "replace"
				}

			}
, 			{
				"box" : 				{
					"id" : "obj-16",
					"maxclass" : "newobj",
					"numinlets" : 1,
					"numoutlets" : 2,
					"outlettype" : [ "float", "bang" ],
					"patching_rect" : [ 102.0, 609.0, 79.0, 22.0 ],
					"text" : "buffer~ amen"
				}

			}
, 			{
				"box" : 				{
					"id" : "obj-82",
					"maxclass" : "newobj",
					"numinlets" : 2,
					"numoutlets" : 1,
					"outlettype" : [ "float" ],
					"patching_rect" : [ 99.0, 332.0, 39.0, 22.0 ],
					"text" : "/ 44.1"
				}

			}
, 			{
				"box" : 				{
					"id" : "obj-81",
					"maxclass" : "number",
					"numinlets" : 1,
					"numoutlets" : 2,
					"outlettype" : [ "", "bang" ],
					"parameter_enable" : 0,
					"patching_rect" : [ 102.0, 284.0, 64.0, 22.0 ]
				}

			}
, 			{
				"box" : 				{
					"id" : "obj-71",
					"maxclass" : "newobj",
					"numinlets" : 1,
					"numoutlets" : 1,
					"outlettype" : [ "" ],
					"patching_rect" : [ 103.0, 384.0, 77.0, 22.0 ],
					"text" : "prepend size"
				}

			}
, 			{
				"box" : 				{
					"id" : "obj-65",
					"maxclass" : "newobj",
					"numinlets" : 1,
					"numoutlets" : 2,
					"outlettype" : [ "", "float" ],
					"patching_rect" : [ 197.0, 289.0, 63.0, 22.0 ],
					"text" : "unpack s f"
				}

			}
, 			{
				"box" : 				{
					"id" : "obj-63",
					"maxclass" : "newobj",
					"numinlets" : 1,
					"numoutlets" : 1,
					"outlettype" : [ "" ],
					"patching_rect" : [ 200.5, 221.0, 75.0, 22.0 ],
					"text" : "prepend line"
				}

			}
, 			{
				"box" : 				{
					"id" : "obj-61",
					"maxclass" : "button",
					"numinlets" : 1,
					"numoutlets" : 1,
					"outlettype" : [ "bang" ],
					"parameter_enable" : 0,
					"patching_rect" : [ 205.0, 110.0, 24.0, 24.0 ],
					"presentation" : 1,
					"presentation_rect" : [ 175.163404226303101, 109.640527129173279, 24.0, 24.0 ]
				}

			}
, 			{
				"box" : 				{
					"id" : "obj-60",
					"maxclass" : "number",
					"numinlets" : 1,
					"numoutlets" : 2,
					"outlettype" : [ "", "bang" ],
					"parameter_enable" : 0,
					"patching_rect" : [ 201.5, 384.0, 73.0, 22.0 ]
				}

			}
, 			{
				"box" : 				{
					"id" : "obj-59",
					"maxclass" : "newobj",
					"numinlets" : 2,
					"numoutlets" : 3,
					"outlettype" : [ "bang", "bang", "int" ],
					"patching_rect" : [ 205.0, 179.0, 40.0, 22.0 ],
					"text" : "uzi"
				}

			}
, 			{
				"box" : 				{
					"id" : "obj-57",
					"maxclass" : "newobj",
					"numinlets" : 3,
					"numoutlets" : 1,
					"outlettype" : [ "float" ],
					"patching_rect" : [ 242.0, 464.0, 130.0, 22.0 ],
					"text" : "peek~ step_sequencer"
				}

			}
, 			{
				"box" : 				{
					"id" : "obj-35",
					"maxclass" : "newobj",
					"numinlets" : 1,
					"numoutlets" : 2,
					"outlettype" : [ "float", "bang" ],
					"patching_rect" : [ 102.0, 464.0, 135.0, 22.0 ],
					"text" : "buffer~ step_sequencer"
				}

			}
, 			{
				"box" : 				{
					"id" : "obj-32",
					"maxclass" : "message",
					"numinlets" : 2,
					"numoutlets" : 1,
					"outlettype" : [ "" ],
					"patching_rect" : [ 162.0, 111.0, 39.0, 22.0 ],
					"presentation" : 1,
					"presentation_rect" : [ 127.450984418392181, 110.640527129173279, 39.0, 22.0 ],
					"text" : "query"
				}

			}
, 			{
				"box" : 				{
					"id" : "obj-31",
					"maxclass" : "newobj",
					"numinlets" : 1,
					"numoutlets" : 3,
					"outlettype" : [ "", "bang", "int" ],
					"patching_rect" : [ 98.0, 242.0, 40.0, 22.0 ],
					"text" : "text"
				}

			}
, 			{
				"box" : 				{
					"id" : "obj-30",
					"maxclass" : "message",
					"numinlets" : 2,
					"numoutlets" : 1,
					"outlettype" : [ "" ],
					"patching_rect" : [ 105.5, 111.0, 33.0, 22.0 ],
					"presentation" : 1,
					"presentation_rect" : [ 82.352943778038025, 110.640527129173279, 33.0, 22.0 ],
					"text" : "read"
				}

			}
 ],
		"lines" : [ 			{
				"patchline" : 				{
					"destination" : [ "obj-9", 0 ],
					"midpoints" : [ 584.415051241715787, 141.0, 600.0, 141.0, 600.0, 180.0, 497.5, 180.0 ],
					"source" : [ "obj-1", 0 ]
				}

			}
, 			{
				"patchline" : 				{
					"destination" : [ "obj-1", 0 ],
					"midpoints" : [ 584.415051241715787, 108.0, 584.415051241715787, 108.0 ],
					"source" : [ "obj-11", 2 ]
				}

			}
, 			{
				"patchline" : 				{
					"destination" : [ "obj-19", 0 ],
					"midpoints" : [ 483.558838705221831, 114.0, 498.0, 114.0, 498.0, 141.0, 483.558838705221831, 141.0 ],
					"source" : [ "obj-11", 1 ]
				}

			}
, 			{
				"patchline" : 				{
					"destination" : [ "obj-20", 0 ],
					"midpoints" : [ 685.271263778209686, 108.0, 699.0, 108.0, 699.0, 144.0, 685.271263778209686, 144.0 ],
					"source" : [ "obj-11", 3 ]
				}

			}
, 			{
				"patchline" : 				{
					"destination" : [ "obj-6", 0 ],
					"midpoints" : [ 382.702626168727875, 108.0, 382.702626168727875, 108.0 ],
					"source" : [ "obj-11", 0 ]
				}

			}
, 			{
				"patchline" : 				{
					"destination" : [ "obj-114", 1 ],
					"midpoints" : [ 566.0, 363.0, 562.5, 363.0 ],
					"order" : 1,
					"source" : [ "obj-113", 1 ]
				}

			}
, 			{
				"patchline" : 				{
					"destination" : [ "obj-114", 0 ],
					"midpoints" : [ 540.5, 363.0, 537.5, 363.0 ],
					"order" : 1,
					"source" : [ "obj-113", 0 ]
				}

			}
, 			{
				"patchline" : 				{
					"destination" : [ "obj-33", 1 ],
					"midpoints" : [ 566.0, 282.0, 516.0, 282.0, 516.0, 219.0, 945.0, 219.0, 945.0, 135.0, 1583.166653156280518, 135.0 ],
					"order" : 0,
					"source" : [ "obj-113", 1 ]
				}

			}
, 			{
				"patchline" : 				{
					"destination" : [ "obj-33", 0 ],
					"midpoints" : [ 540.5, 273.0, 516.0, 273.0, 516.0, 219.0, 945.0, 219.0, 945.0, 135.0, 1401.0, 135.0, 1401.0, 396.0, 1426.166653156280518, 396.0 ],
					"order" : 0,
					"source" : [ "obj-113", 0 ]
				}

			}
, 			{
				"patchline" : 				{
					"destination" : [ "obj-16", 0 ],
					"midpoints" : [ 111.5, 597.0, 111.5, 597.0 ],
					"source" : [ "obj-17", 0 ]
				}

			}
, 			{
				"patchline" : 				{
					"destination" : [ "obj-9", 0 ],
					"midpoints" : [ 483.558838705221831, 177.0, 497.5, 177.0 ],
					"source" : [ "obj-19", 0 ]
				}

			}
, 			{
				"patchline" : 				{
					"destination" : [ "obj-9", 0 ],
					"midpoints" : [ 685.271263778209686, 219.0, 474.0, 219.0, 474.0, 180.0, 497.5, 180.0 ],
					"source" : [ "obj-20", 0 ]
				}

			}
, 			{
				"patchline" : 				{
					"destination" : [ "obj-17", 0 ],
					"midpoints" : [ 341.526154279708862, 615.0, 192.0, 615.0, 192.0, 570.0, 111.5, 570.0 ],
					"source" : [ "obj-23", 0 ]
				}

			}
, 			{
				"patchline" : 				{
					"destination" : [ "obj-33", 0 ],
					"midpoints" : [ 1426.166653156280518, 372.0, 1426.166653156280518, 372.0 ],
					"source" : [ "obj-26", 0 ]
				}

			}
, 			{
				"patchline" : 				{
					"destination" : [ "obj-33", 0 ],
					"midpoints" : [ 1485.690462112426758, 396.0, 1426.166653156280518, 396.0 ],
					"source" : [ "obj-27", 0 ]
				}

			}
, 			{
				"patchline" : 				{
					"destination" : [ "obj-11", 0 ],
					"midpoints" : [ 379.434652209281921, 81.0, 382.702626168727875, 81.0 ],
					"source" : [ "obj-3", 0 ]
				}

			}
, 			{
				"patchline" : 				{
					"destination" : [ "obj-31", 0 ],
					"midpoints" : [ 115.0, 228.0, 107.5, 228.0 ],
					"source" : [ "obj-30", 0 ]
				}

			}
, 			{
				"patchline" : 				{
					"destination" : [ "obj-65", 0 ],
					"midpoints" : [ 107.5, 267.0, 206.5, 267.0 ],
					"source" : [ "obj-31", 0 ]
				}

			}
, 			{
				"patchline" : 				{
					"destination" : [ "obj-81", 0 ],
					"midpoints" : [ 128.5, 267.0, 114.0, 267.0, 114.0, 279.0, 111.5, 279.0 ],
					"source" : [ "obj-31", 2 ]
				}

			}
, 			{
				"patchline" : 				{
					"destination" : [ "obj-31", 0 ],
					"midpoints" : [ 171.5, 228.0, 107.5, 228.0 ],
					"source" : [ "obj-32", 0 ]
				}

			}
, 			{
				"patchline" : 				{
					"destination" : [ "obj-25", 0 ],
					"midpoints" : [ 1426.166653156280518, 435.0, 1426.166653156280518, 435.0 ],
					"source" : [ "obj-33", 0 ]
				}

			}
, 			{
				"patchline" : 				{
					"destination" : [ "obj-60", 0 ],
					"midpoints" : [ 235.5, 204.0, 183.0, 204.0, 183.0, 369.0, 211.0, 369.0 ],
					"order" : 0,
					"source" : [ "obj-59", 2 ]
				}

			}
, 			{
				"patchline" : 				{
					"destination" : [ "obj-63", 0 ],
					"midpoints" : [ 235.5, 204.0, 213.0, 204.0, 213.0, 216.0, 210.0, 216.0 ],
					"order" : 1,
					"source" : [ "obj-59", 2 ]
				}

			}
, 			{
				"patchline" : 				{
					"destination" : [ "obj-9", 0 ],
					"midpoints" : [ 382.702626168727875, 180.0, 497.5, 180.0 ],
					"source" : [ "obj-6", 0 ]
				}

			}
, 			{
				"patchline" : 				{
					"destination" : [ "obj-57", 0 ],
					"midpoints" : [ 211.0, 450.0, 251.5, 450.0 ],
					"source" : [ "obj-60", 0 ]
				}

			}
, 			{
				"patchline" : 				{
					"destination" : [ "obj-59", 0 ],
					"midpoints" : [ 214.5, 135.0, 214.5, 135.0 ],
					"source" : [ "obj-61", 0 ]
				}

			}
, 			{
				"patchline" : 				{
					"destination" : [ "obj-31", 0 ],
					"midpoints" : [ 210.0, 246.0, 150.0, 246.0, 150.0, 228.0, 107.5, 228.0 ],
					"source" : [ "obj-63", 0 ]
				}

			}
, 			{
				"patchline" : 				{
					"destination" : [ "obj-57", 1 ],
					"midpoints" : [ 250.5, 369.0, 307.0, 369.0 ],
					"source" : [ "obj-65", 1 ]
				}

			}
, 			{
				"patchline" : 				{
					"destination" : [ "obj-35", 0 ],
					"midpoints" : [ 112.5, 408.0, 111.5, 408.0 ],
					"source" : [ "obj-71", 0 ]
				}

			}
, 			{
				"patchline" : 				{
					"destination" : [ "obj-59", 1 ],
					"midpoints" : [ 111.5, 318.0, 183.0, 318.0, 183.0, 165.0, 235.5, 165.0 ],
					"order" : 0,
					"source" : [ "obj-81", 0 ]
				}

			}
, 			{
				"patchline" : 				{
					"destination" : [ "obj-82", 0 ],
					"midpoints" : [ 111.5, 327.0, 108.5, 327.0 ],
					"order" : 1,
					"source" : [ "obj-81", 0 ]
				}

			}
, 			{
				"patchline" : 				{
					"destination" : [ "obj-71", 0 ],
					"midpoints" : [ 108.5, 381.0, 112.5, 381.0 ],
					"source" : [ "obj-82", 0 ]
				}

			}
, 			{
				"patchline" : 				{
					"destination" : [ "obj-111", 0 ],
					"midpoints" : [ 497.5, 459.0, 600.5, 459.0 ],
					"order" : 1,
					"source" : [ "obj-9", 0 ]
				}

			}
, 			{
				"patchline" : 				{
					"destination" : [ "obj-113", 1 ],
					"midpoints" : [ 497.5, 222.0, 642.5, 222.0 ],
					"order" : 0,
					"source" : [ "obj-9", 0 ]
				}

			}
, 			{
				"patchline" : 				{
					"destination" : [ "obj-113", 0 ],
					"midpoints" : [ 497.5, 222.0, 540.5, 222.0 ],
					"order" : 3,
					"source" : [ "obj-9", 0 ]
				}

			}
, 			{
				"patchline" : 				{
					"destination" : [ "obj-14", 0 ],
					"hidden" : 1,
					"midpoints" : [ 497.5, 222.0, 600.5, 222.0 ],
					"order" : 2,
					"source" : [ "obj-9", 0 ]
				}

			}
, 			{
				"patchline" : 				{
					"destination" : [ "obj-4", 0 ],
					"hidden" : 1,
					"midpoints" : [ 602.5, 210.0, 945.0, 210.0, 945.0, 144.0, 967.5, 144.0 ],
					"source" : [ "obj-9", 1 ]
				}

			}
 ],
		"originid" : "pat-20",
		"parameters" : 		{
			"obj-113" : [ "live.gain~[1]", "live.gain~", 0 ],
			"obj-23" : [ "live.text", "Replace", 0 ],
			"obj-3::obj-1" : [ "live.dial[7]", "Pan", 0 ],
			"obj-3::obj-10" : [ "live.dial[5]", "Pan", 0 ],
			"obj-3::obj-11" : [ "live.dial[6]", "Pan", 0 ],
			"obj-3::obj-5" : [ "live.dial", "BPM", 0 ],
			"obj-3::obj-6" : [ "live.dial[1]", "numBeats", 0 ],
			"obj-3::obj-7" : [ "live.dial[2]", "Pan", 0 ],
			"obj-3::obj-8" : [ "live.dial[3]", "Chance", 0 ],
			"obj-3::obj-9" : [ "live.dial[4]", "Slices", 0 ],
			"parameterbanks" : 			{
				"0" : 				{
					"index" : 0,
					"name" : "",
					"parameters" : [ "-", "-", "-", "-", "-", "-", "-", "-" ]
				}

			}
,
			"inherited_shortname" : 1
		}
,
		"dependency_cache" : [ 			{
				"name" : "frm.kntrl.maxpat",
				"bootpath" : "~/Desktop/FRM",
				"patcherrelativepath" : ".",
				"type" : "JSON",
				"implicit" : 1
			}
, 			{
				"name" : "go.ramp2steps.gendsp",
				"bootpath" : "~/Documents/Max 9/Packages/GeneratingSoundAndOrganizingTime/patchers",
				"patcherrelativepath" : "../../Documents/Max 9/Packages/GeneratingSoundAndOrganizingTime/patchers",
				"type" : "gDSP",
				"implicit" : 1
			}
, 			{
				"name" : "go.ramp2trig.gendsp",
				"bootpath" : "~/Documents/Max 9/Packages/GeneratingSoundAndOrganizingTime/patchers",
				"patcherrelativepath" : "../../Documents/Max 9/Packages/GeneratingSoundAndOrganizingTime/patchers",
				"type" : "gDSP",
				"implicit" : 1
			}
 ],
		"autosave" : 0
	}

}
